# xmcd
#
# Track frame offsets: 
#        150
#        35892
#        62788
#        105335
#        130111
#        152261
#        187368
#        231593
#        252081
#        270655
#
# Disc length: 3877 seconds
#
# Revision: 3
# Processed by: cddbd v1.5.2PL0 Copyright (c) Steve Scherf et al.
# Submitted via: ExactAudioCopy v1.3
#
DISCID=8b0f230a
DTITLE=이승열 - V
DYEAR=2013
DGENRE=Rock
TTITLE0=minotaur
TTITLE1=we are dying
TTITLE2=who? (veloso live)
TTITLE3=개가 되고
TTITLE4=satin camel (바다였던)
TTITLE5=fear (don't let it get the best of you darling)
TTITLE6=who? (fluxus studio live)
TTITLE7=secretly (wouldn't you like to know...)
TTITLE8=bluey (feat. 장필순)
TTITLE9=cynic (somewhere in the desert world)
EXTD=
EXTT0=
EXTT1=
EXTT2=
EXTT3=
EXTT4=
EXTT5=
EXTT6=
EXTT7=
EXTT8=
EXTT9=
PLAYORDER=
